# xmcd
#
# Track frame offsets: 
#        150
#        9858
#        20739
#        33525
#        43436
#        52763
#        60516
#        72127
#        81391
#        91933
#        102474
#        115524
#        124305
#        149146
#
# Disc length: 2219 seconds
#
# Revision: 3
# Processed by: cddbd v1.5.2PL0 Copyright (c) Steve Scherf et al.
# Submitted via: ExactAudioCopy v1.0b1
#
DISCID=c108a90e
DTITLE=John Mayall and The Bluesbreakers - Live at the BBC
DYEAR=2007
DGENRE=Blues
TTITLE0=Crawling Up A Hill (BBC 04-26-65) (mono)
TTITLE1=Crocodile Walk (BBC 04-26-65) (mono)
TTITLE2=Bye Bye Bird (BBC 04-26-65) (mono)
TTITLE3=I'm Your Witchdoctor (BBC 10-25-65) (mono)
TTITLE4=Cheating Woman (BBC 10-25-65) (mono)
TTITLE5=Nowhere To Turn (BBC 10-25-65) (mono)
TTITLE6=On Top Of The World (BBC 03-14-66) (mono)
TTITLE7=Key To Love (BBC 03-14-66) (mono)
TTITLE8=No More Tears (BBC 01-23-67) (mono)
TTITLE9=Riding On The L And N (BBC 01-23-67) (mono)
TTITLE10=Sitting In The Rain (BBC 01-23-67) (mono)
TTITLE11=Leaping Christine (BBC 01-23-67) (mono)
TTITLE12=So Much To Do (BBC 10-21-75) (mono)
TTITLE13=Taxman Blues (BBC 10-21-75) (mono)
EXTD=
EXTT0=
EXTT1=
EXTT2=
EXTT3=
EXTT4=
EXTT5=
EXTT6=
EXTT7=
EXTT8=
EXTT9=
EXTT10=
EXTT11=
EXTT12=
EXTT13=
PLAYORDER=
